<?xml version="1.0" standalone="no"?>
<!DOCTYPE svg PUBLIC "-//W3C//DTD SVG 20010904//EN"
 "http://www.w3.org/TR/2001/REC-SVG-20010904/DTD/svg10.dtd">
<svg version="1.0" xmlns="http://www.w3.org/2000/svg"
 width="294.000000pt" height="294.000000pt" viewBox="0 0 294.000000 294.000000"
 preserveAspectRatio="xMidYMid meet">
<metadata>
Created by potrace 1.14, written by Peter Selinger 2001-2017
</metadata>
<g transform="translate(0.000000,294.000000) scale(0.100000,-0.100000)"
fill="#000000" stroke="none">
<path d="M1315 2663 c-133 -19 -331 -86 -440 -151 -262 -155 -452 -389 -544
-669 -26 -81 -64 -263 -56 -271 2 -2 12 -1 22 2 12 4 19 17 20 42 3 56 30 165
63 255 58 160 148 299 275 425 161 160 346 258 598 318 67 15 346 20 398 6 19
-5 50 -11 70 -14 49 -7 202 -62 274 -98 216 -110 419 -315 517 -524 21 -46 35
-64 49 -64 10 0 19 3 19 6 0 3 -21 46 -46 96 -135 261 -359 461 -634 568 -146
56 -230 71 -400 74 -85 1 -168 1 -185 -1z"/>
<path d="M610 1828 c-1 -24 -1 -100 -1 -170 0 -184 17 -172 -255 -173 -121 -1
-229 2 -242 7 -12 4 -27 19 -32 33 -8 20 -16 25 -45 25 -41 0 -46 -18 -15 -67
40 -66 49 -68 310 -69 129 -1 246 3 260 8 33 12 70 47 82 78 8 18 14 291 9
363 -1 4 -17 7 -36 7 -34 0 -35 -1 -35 -42z"/>
<path d="M759 1786 c-2 -287 3 -315 58 -352 26 -18 51 -19 337 -20 337 0 348
1 390 59 19 25 20 43 21 205 1 112 -3 180 -10 184 -5 4 -22 8 -37 8 l-28 0 0
-179 c0 -152 -2 -181 -16 -192 -13 -11 -79 -14 -307 -14 -261 0 -292 1 -312
17 -22 17 -22 23 -22 190 l1 173 -37 1 -37 1 -1 -81z"/>
<path d="M1730 1862 c-63 -10 -117 -86 -106 -148 9 -46 48 -88 93 -101 23 -7
143 -11 304 -10 146 0 277 -3 292 -7 46 -11 49 -87 4 -102 -12 -5 -173 -8
-357 -8 l-335 -1 0 -35 0 -35 357 0 c344 0 357 1 385 21 40 29 67 87 59 128
-8 42 -40 84 -75 98 -16 7 -133 12 -306 13 -154 2 -288 3 -297 4 -42 3 -62 58
-34 96 13 18 32 19 382 20 203 1 377 -1 387 -3 15 -4 17 -21 17 -191 l0 -187
34 -1 c24 0 35 4 38 16 2 9 3 94 3 189 l-1 172 25 1 c14 0 96 1 181 2 l155 2
3 36 3 35 -593 0 c-326 0 -604 -2 -618 -4z"/>
<path d="M0 1298 c0 -10 7 -18 18 -18 9 -1 86 -2 170 -3 l154 -2 24 -28 c30
-36 30 -68 0 -104 -27 -31 -34 -32 -248 -33 -109 0 -118 -1 -118 -19 0 -17 10
-18 168 -17 137 1 173 5 199 19 80 42 83 152 6 202 -24 16 -51 19 -200 20
-161 1 -173 0 -173 -17z"/>
<path d="M460 1299 c0 -21 -8 -20 165 -20 270 0 265 -1 265 19 0 18 -13 19
-215 19 -203 0 -215 -1 -215 -18z"/>
<path d="M927 1313 c-3 -5 20 -35 51 -69 32 -33 79 -84 105 -112 26 -29 50
-52 54 -52 3 0 13 8 22 19 9 10 54 60 101 111 47 51 86 96 88 100 7 19 -53 1
-71 -21 -32 -40 -136 -149 -142 -149 -5 0 -69 67 -136 142 -25 28 -64 44 -72
31z"/>
<path d="M1394 1299 c-19 -21 -19 -21 31 -21 184 0 195 1 195 21 0 17 -9 18
-105 18 -89 1 -106 -2 -121 -18z"/>
<path d="M1664 1307 c-2 -7 -3 -62 -2 -123 l3 -109 173 -1 c161 -1 172 0 172
17 0 21 11 19 -212 21 l-98 0 0 104 c0 87 -3 104 -15 104 -9 0 -18 -6 -21 -13z"/>
<path d="M2064 1297 c-22 -17 -24 -26 -24 -102 0 -79 1 -85 27 -105 26 -20 36
-21 194 -18 210 4 209 3 209 123 0 120 1 120 -212 120 -152 1 -173 -1 -194
-18z m353 -29 c18 -15 17 -132 -1 -147 -14 -12 -294 -15 -323 -4 -18 7 -19
149 0 156 27 9 312 5 324 -5z"/>
<path d="M2512 1297 c3 -19 12 -20 178 -20 96 1 183 -3 193 -8 20 -11 22 -34
5 -46 -7 -4 -92 -8 -188 -9 -96 -1 -178 -2 -182 -3 -5 -1 -8 -32 -8 -69 0 -61
2 -68 20 -69 18 -2 20 4 20 51 l0 53 153 -2 c83 0 166 3 182 7 55 14 72 65 36
109 -19 23 -22 24 -215 24 -190 1 -197 0 -194 -18z"/>
<path d="M463 1203 c-3 -7 -3 -16 0 -20 4 -6 357 -10 400 -4 5 1 7 9 5 18 -3
16 -22 17 -202 18 -148 0 -200 -3 -203 -12z"/>
<path d="M1302 1195 l-23 -20 160 0 c147 0 161 2 161 18 0 20 13 19 -145 20
-117 2 -132 0 -153 -18z"/>
<path d="M488 1112 c-19 -2 -28 -9 -28 -21 0 -16 17 -17 215 -18 203 0 215 1
215 19 0 15 -9 18 -62 19 -35 0 -119 1 -188 2 -69 1 -137 1 -152 -1z"/>
<path d="M1259 1112 c-20 -2 -44 -11 -53 -21 -16 -17 -8 -18 199 -18 201 1
215 2 215 19 0 12 -8 18 -22 19 -90 3 -310 3 -339 1z"/>
<path d="M2560 1023 c-9 -2 -32 -36 -53 -76 -112 -221 -295 -405 -513 -515
-567 -286 -1264 -60 -1556 505 -29 56 -49 83 -60 83 -10 0 -18 -2 -18 -5 0
-14 75 -155 116 -217 57 -87 213 -246 305 -311 135 -96 321 -171 494 -201 79
-14 331 -15 385 -2 14 3 49 11 78 17 334 69 643 313 806 638 39 76 41 89 16
84z"/>
</g>
</svg>
